<svg xmlns="http://www.w3.org/2000/svg" xmlns:xlink="http://www.w3.org/1999/xlink" width="500" zoomAndPan="magnify" viewBox="0 0 375 374.999991" height="500" preserveAspectRatio="xMidYMid meet" version="1.0"><defs><g/><clipPath id="c243d95bc7"><rect x="0" width="115" y="0" height="234"/></clipPath><clipPath id="97c7b44ccb"><rect x="0" width="96" y="0" height="233"/></clipPath><clipPath id="600847a4b1"><path d="M 90.617188 183.839844 L 291.386719 183.839844 L 291.386719 209.261719 L 90.617188 209.261719 Z M 90.617188 183.839844 " clip-rule="nonzero"/></clipPath><clipPath id="40fb5f74a9"><path d="M 0.617188 0.839844 L 201.386719 0.839844 L 201.386719 26.261719 L 0.617188 26.261719 Z M 0.617188 0.839844 " clip-rule="nonzero"/></clipPath><clipPath id="f56696c3fc"><rect x="0" width="202" y="0" height="27"/></clipPath><clipPath id="908f5ae5bb"><rect x="0" width="195" y="0" height="28"/></clipPath></defs><g transform="matrix(1, 0, 0, 1, 71, 59)"><g clip-path="url(#c243d95bc7)"><g fill="#ffffff" fill-opacity="1"><g transform="translate(2.808853, 188.979673)"><g><path d="M 99.015625 -14.671875 C 101.804688 -7.453125 105.820312 -3.726562 111.0625 -3.5 L 111.0625 0 C 106.40625 -0.351562 100.175781 -0.53125 92.375 -0.53125 C 82.363281 -0.53125 74.914062 -0.351562 70.03125 0 L 70.03125 -3.5 C 74.445312 -3.726562 77.613281 -4.28125 79.53125 -5.15625 C 81.457031 -6.03125 82.421875 -7.628906 82.421875 -9.953125 C 82.421875 -11.929688 81.722656 -14.664062 80.328125 -18.15625 L 69.671875 -46.796875 L 27.421875 -46.796875 L 20.25 -28.296875 C 17.925781 -22.003906 16.765625 -17.226562 16.765625 -13.96875 C 16.765625 -10.363281 18.015625 -7.742188 20.515625 -6.109375 C 23.015625 -4.484375 26.828125 -3.613281 31.953125 -3.5 L 31.953125 0 C 25.316406 -0.351562 18.625 -0.53125 11.875 -0.53125 C 6.632812 -0.53125 2.269531 -0.351562 -1.21875 0 L -1.21875 -3.5 C 4.601562 -4.894531 9.203125 -9.957031 12.578125 -18.6875 L 53.609375 -124.5 L 56.40625 -124.5 Z M 68.28125 -50.296875 L 48.71875 -102.5 L 28.8125 -50.296875 Z M 68.28125 -50.296875 "/></g></g></g></g></g><g transform="matrix(1, 0, 0, 1, 198, 61)"><g clip-path="url(#97c7b44ccb)"><g fill="#ffffff" fill-opacity="1"><g transform="translate(1.024647, 188.98292)"><g><path d="M 44.703125 -125.5625 C 49.828125 -125.5625 53.875 -125.003906 56.84375 -123.890625 C 59.8125 -122.785156 62.867188 -121.1875 66.015625 -119.09375 C 68.566406 -117.46875 70.546875 -116.65625 71.953125 -116.65625 C 72.992188 -116.65625 73.804688 -117.265625 74.390625 -118.484375 C 74.972656 -119.703125 75.4375 -121.648438 75.78125 -124.328125 L 79.796875 -124.328125 C 79.222656 -117.578125 78.9375 -105.703125 78.9375 -88.703125 L 74.921875 -88.703125 C 74.210938 -98.140625 71.5 -106.085938 66.78125 -112.546875 C 62.070312 -119.003906 55.238281 -122.234375 46.28125 -122.234375 C 39.988281 -122.234375 34.863281 -120.34375 30.90625 -116.5625 C 26.945312 -112.78125 24.96875 -107.921875 24.96875 -101.984375 C 24.96875 -97.554688 25.984375 -93.710938 28.015625 -90.453125 C 30.054688 -87.191406 32.648438 -84.394531 35.796875 -82.0625 C 38.941406 -79.738281 43.425781 -76.773438 49.25 -73.171875 L 54.3125 -70.03125 C 61.644531 -65.488281 67.4375 -61.5 71.6875 -58.0625 C 75.9375 -54.625 79.335938 -50.691406 81.890625 -46.265625 C 84.453125 -41.847656 85.734375 -36.671875 85.734375 -30.734375 C 85.734375 -20.140625 82.238281 -11.960938 75.25 -6.203125 C 68.269531 -0.441406 59.425781 2.4375 48.71875 2.4375 C 43.132812 2.4375 38.566406 1.851562 35.015625 0.6875 C 31.460938 -0.46875 28.054688 -2.035156 24.796875 -4.015625 C 22.234375 -5.648438 20.253906 -6.46875 18.859375 -6.46875 C 17.804688 -6.46875 16.988281 -5.851562 16.40625 -4.625 C 15.832031 -3.40625 15.367188 -1.457031 15.015625 1.21875 L 11 1.21875 C 11.46875 -5.175781 11.703125 -19.144531 11.703125 -40.6875 L 15.71875 -40.6875 C 16.53125 -28.925781 19.4375 -19.378906 24.4375 -12.046875 C 29.445312 -4.710938 37.132812 -1.046875 47.5 -1.046875 C 53.78125 -1.046875 59.132812 -2.992188 63.5625 -6.890625 C 67.988281 -10.796875 70.203125 -16.585938 70.203125 -24.265625 C 70.203125 -30.785156 68.019531 -36.316406 63.65625 -40.859375 C 59.289062 -45.398438 52.390625 -50.523438 42.953125 -56.234375 C 36.085938 -60.421875 30.53125 -64.144531 26.28125 -67.40625 C 22.03125 -70.664062 18.566406 -74.59375 15.890625 -79.1875 C 13.210938 -83.789062 11.875 -89.175781 11.875 -95.34375 C 11.875 -105.125 15.015625 -112.601562 21.296875 -117.78125 C 27.585938 -122.96875 35.390625 -125.5625 44.703125 -125.5625 Z M 44.703125 -125.5625 "/></g></g></g></g></g><path stroke-linecap="butt" transform="matrix(0, 0.75, -0.75, 0, 192.878005, 89.809542)" fill="none" stroke-linejoin="miter" d="M -0.00126447 0.498799 L 250.759169 0.498799 " stroke="#ffffff" stroke-width="1" stroke-opacity="1" stroke-miterlimit="4"/><g clip-path="url(#600847a4b1)"><g transform="matrix(1, 0, 0, 1, 90, 183)"><g clip-path="url(#f56696c3fc)"><g clip-path="url(#40fb5f74a9)"><path fill="#ffffff" d="M 0.617188 0.839844 L 201.402344 0.839844 L 201.402344 26.261719 L 0.617188 26.261719 Z M 0.617188 0.839844 " fill-opacity="1" fill-rule="nonzero"/></g></g></g></g><g transform="matrix(1, 0, 0, 1, 96, 182)"><g clip-path="url(#908f5ae5bb)"><g fill="#092a2f" fill-opacity="1"><g transform="translate(1.579624, 20.560762)"><g><path d="M 9.53125 -2.375 L 4.53125 -2.375 L 3.71875 0 L 0.3125 0 L 5.15625 -13.40625 L 8.9375 -13.40625 L 13.78125 0 L 10.328125 0 Z M 8.6875 -4.890625 L 7.03125 -9.796875 L 5.390625 -4.890625 Z M 8.6875 -4.890625 "/></g></g></g><g fill="#092a2f" fill-opacity="1"><g transform="translate(21.15471, 20.560762)"><g><path d="M 9.296875 -6.875 C 10.078125 -6.707031 10.703125 -6.320312 11.171875 -5.71875 C 11.640625 -5.113281 11.875 -4.421875 11.875 -3.640625 C 11.875 -2.523438 11.484375 -1.640625 10.703125 -0.984375 C 9.921875 -0.328125 8.828125 0 7.421875 0 L 1.1875 0 L 1.1875 -13.40625 L 7.21875 -13.40625 C 8.582031 -13.40625 9.648438 -13.09375 10.421875 -12.46875 C 11.191406 -11.84375 11.578125 -10.992188 11.578125 -9.921875 C 11.578125 -9.140625 11.367188 -8.484375 10.953125 -7.953125 C 10.535156 -7.429688 9.984375 -7.070312 9.296875 -6.875 Z M 4.453125 -7.984375 L 6.59375 -7.984375 C 7.125 -7.984375 7.53125 -8.097656 7.8125 -8.328125 C 8.101562 -8.566406 8.25 -8.914062 8.25 -9.375 C 8.25 -9.832031 8.101562 -10.179688 7.8125 -10.421875 C 7.53125 -10.660156 7.125 -10.78125 6.59375 -10.78125 L 4.453125 -10.78125 Z M 6.859375 -2.640625 C 7.398438 -2.640625 7.820312 -2.757812 8.125 -3 C 8.425781 -3.25 8.578125 -3.613281 8.578125 -4.09375 C 8.578125 -4.5625 8.421875 -4.925781 8.109375 -5.1875 C 7.796875 -5.457031 7.363281 -5.59375 6.8125 -5.59375 L 4.453125 -5.59375 L 4.453125 -2.640625 Z M 6.859375 -2.640625 "/></g></g></g><g fill="#092a2f" fill-opacity="1"><g transform="translate(39.240509, 20.560762)"><g><path d="M 12.796875 -13.40625 L 12.796875 0 L 9.53125 0 L 9.53125 -5.515625 L 4.453125 -5.515625 L 4.453125 0 L 1.1875 0 L 1.1875 -13.40625 L 4.453125 -13.40625 L 4.453125 -8.15625 L 9.53125 -8.15625 L 9.53125 -13.40625 Z M 12.796875 -13.40625 "/></g></g></g><g fill="#092a2f" fill-opacity="1"><g transform="translate(58.701045, 20.560762)"><g><path d="M 9.53125 -2.375 L 4.53125 -2.375 L 3.71875 0 L 0.3125 0 L 5.15625 -13.40625 L 8.9375 -13.40625 L 13.78125 0 L 10.328125 0 Z M 8.6875 -4.890625 L 7.03125 -9.796875 L 5.390625 -4.890625 Z M 8.6875 -4.890625 "/></g></g></g><g fill="#092a2f" fill-opacity="1"><g transform="translate(78.276131, 20.560762)"><g><path d="M 12.671875 -13.40625 L 8.03125 -4.4375 L 8.03125 0 L 4.78125 0 L 4.78125 -4.4375 L 0.140625 -13.40625 L 3.84375 -13.40625 L 6.4375 -7.796875 L 9.015625 -13.40625 Z M 12.671875 -13.40625 "/></g></g></g><g fill="#092a2f" fill-opacity="1"><g transform="translate(96.59106, 20.560762)"><g/></g></g><g fill="#092a2f" fill-opacity="1"><g transform="translate(106.142114, 20.560762)"><g><path d="M 6.03125 0.140625 C 5.050781 0.140625 4.171875 -0.0195312 3.390625 -0.34375 C 2.617188 -0.664062 2 -1.132812 1.53125 -1.75 C 1.070312 -2.375 0.828125 -3.128906 0.796875 -4.015625 L 4.28125 -4.015625 C 4.332031 -3.515625 4.503906 -3.132812 4.796875 -2.875 C 5.085938 -2.613281 5.46875 -2.484375 5.9375 -2.484375 C 6.414062 -2.484375 6.796875 -2.59375 7.078125 -2.8125 C 7.359375 -3.039062 7.5 -3.351562 7.5 -3.75 C 7.5 -4.070312 7.382812 -4.34375 7.15625 -4.5625 C 6.9375 -4.78125 6.664062 -4.957031 6.34375 -5.09375 C 6.019531 -5.238281 5.5625 -5.398438 4.96875 -5.578125 C 4.101562 -5.835938 3.394531 -6.101562 2.84375 -6.375 C 2.300781 -6.644531 1.832031 -7.039062 1.4375 -7.5625 C 1.039062 -8.082031 0.84375 -8.765625 0.84375 -9.609375 C 0.84375 -10.847656 1.289062 -11.820312 2.1875 -12.53125 C 3.09375 -13.238281 4.273438 -13.59375 5.734375 -13.59375 C 7.203125 -13.59375 8.390625 -13.238281 9.296875 -12.53125 C 10.203125 -11.820312 10.6875 -10.835938 10.75 -9.578125 L 7.21875 -9.578125 C 7.1875 -10.015625 7.023438 -10.359375 6.734375 -10.609375 C 6.441406 -10.859375 6.066406 -10.984375 5.609375 -10.984375 C 5.210938 -10.984375 4.894531 -10.875 4.65625 -10.65625 C 4.414062 -10.445312 4.296875 -10.144531 4.296875 -9.75 C 4.296875 -9.320312 4.5 -8.984375 4.90625 -8.734375 C 5.3125 -8.492188 5.945312 -8.238281 6.8125 -7.96875 C 7.675781 -7.664062 8.378906 -7.378906 8.921875 -7.109375 C 9.460938 -6.847656 9.929688 -6.460938 10.328125 -5.953125 C 10.722656 -5.441406 10.921875 -4.785156 10.921875 -3.984375 C 10.921875 -3.222656 10.722656 -2.53125 10.328125 -1.90625 C 9.941406 -1.28125 9.378906 -0.78125 8.640625 -0.40625 C 7.910156 -0.0390625 7.039062 0.140625 6.03125 0.140625 Z M 6.03125 0.140625 "/></g></g></g><g fill="#092a2f" fill-opacity="1"><g transform="translate(123.387808, 20.560762)"><g><path d="M 4.453125 -13.40625 L 4.453125 0 L 1.1875 0 L 1.1875 -13.40625 Z M 4.453125 -13.40625 "/></g></g></g><g fill="#092a2f" fill-opacity="1"><g transform="translate(134.52361, 20.560762)"><g><path d="M 13.171875 0 L 9.90625 0 L 4.453125 -8.265625 L 4.453125 0 L 1.1875 0 L 1.1875 -13.40625 L 4.453125 -13.40625 L 9.90625 -5.09375 L 9.90625 -13.40625 L 13.171875 -13.40625 Z M 13.171875 0 "/></g></g></g><g fill="#092a2f" fill-opacity="1"><g transform="translate(154.385109, 20.560762)"><g><path d="M 10.078125 -9.171875 C 9.835938 -9.609375 9.488281 -9.945312 9.03125 -10.1875 C 8.582031 -10.425781 8.054688 -10.546875 7.453125 -10.546875 C 6.390625 -10.546875 5.539062 -10.195312 4.90625 -9.5 C 4.269531 -8.800781 3.953125 -7.875 3.953125 -6.71875 C 3.953125 -5.488281 4.285156 -4.523438 4.953125 -3.828125 C 5.617188 -3.128906 6.539062 -2.78125 7.71875 -2.78125 C 8.519531 -2.78125 9.195312 -2.984375 9.75 -3.390625 C 10.300781 -3.804688 10.703125 -4.394531 10.953125 -5.15625 L 6.8125 -5.15625 L 6.8125 -7.5625 L 13.921875 -7.5625 L 13.921875 -4.53125 C 13.679688 -3.707031 13.269531 -2.945312 12.6875 -2.25 C 12.101562 -1.550781 11.363281 -0.984375 10.46875 -0.546875 C 9.582031 -0.117188 8.582031 0.09375 7.46875 0.09375 C 6.144531 0.09375 4.960938 -0.191406 3.921875 -0.765625 C 2.890625 -1.347656 2.082031 -2.15625 1.5 -3.1875 C 0.914062 -4.21875 0.625 -5.394531 0.625 -6.71875 C 0.625 -8.039062 0.914062 -9.21875 1.5 -10.25 C 2.082031 -11.289062 2.882812 -12.101562 3.90625 -12.6875 C 4.9375 -13.269531 6.117188 -13.5625 7.453125 -13.5625 C 9.054688 -13.5625 10.40625 -13.171875 11.5 -12.390625 C 12.601562 -11.617188 13.332031 -10.546875 13.6875 -9.171875 Z M 10.078125 -9.171875 "/></g></g></g><g fill="#092a2f" fill-opacity="1"><g transform="translate(174.43753, 20.560762)"><g><path d="M 12.796875 -13.40625 L 12.796875 0 L 9.53125 0 L 9.53125 -5.515625 L 4.453125 -5.515625 L 4.453125 0 L 1.1875 0 L 1.1875 -13.40625 L 4.453125 -13.40625 L 4.453125 -8.15625 L 9.53125 -8.15625 L 9.53125 -13.40625 Z M 12.796875 -13.40625 "/></g></g></g></g></g></svg>