<svg xmlns="http://www.w3.org/2000/svg" xmlns:xlink="http://www.w3.org/1999/xlink" width="117" zoomAndPan="magnify" viewBox="0 0 87.75 119.999999" height="160" preserveAspectRatio="xMidYMid meet" version="1.0"><defs><clipPath id="0a1e45d9ff"><path d="M 9.316406 28 L 78.867188 28 L 78.867188 106.890625 L 9.316406 106.890625 Z M 9.316406 28 " clip-rule="nonzero"/></clipPath><clipPath id="55d2eeba15"><path d="M 15 8.921875 L 29 8.921875 L 29 23 L 15 23 Z M 15 8.921875 " clip-rule="nonzero"/></clipPath><clipPath id="c34bcd0f3e"><path d="M 30 8.921875 L 43 8.921875 L 43 23 L 30 23 Z M 30 8.921875 " clip-rule="nonzero"/></clipPath><clipPath id="16cafeb441"><path d="M 44 8.921875 L 60 8.921875 L 60 23 L 44 23 Z M 44 8.921875 " clip-rule="nonzero"/></clipPath><clipPath id="08c866f878"><path d="M 61 8.921875 L 73 8.921875 L 73 23 L 61 23 Z M 61 8.921875 " clip-rule="nonzero"/></clipPath></defs><g clip-path="url(#0a1e45d9ff)"><path fill="#e44d26" d="M 78.851562 28.171875 L 72.519531 99.007812 L 44.0625 106.886719 L 15.683594 99.019531 L 9.359375 28.171875 Z M 78.851562 28.171875 " fill-opacity="1" fill-rule="nonzero"/></g><path fill="#f16529" d="M 44.105469 100.863281 L 67.101562 94.5 L 72.511719 33.96875 L 44.105469 33.964844 Z M 44.105469 100.863281 " fill-opacity="1" fill-rule="nonzero"/><path fill="#ebebeb" d="M 31.800781 51.34375 L 44.105469 51.34375 L 44.105469 42.652344 L 22.292969 42.652344 L 22.5 44.984375 L 24.636719 68.929688 L 44.105469 68.929688 L 44.105469 60.242188 L 32.59375 60.242188 Z M 31.800781 51.34375 " fill-opacity="1" fill-rule="nonzero"/><path fill="#ebebeb" d="M 33.757812 73.273438 L 25.027344 73.273438 L 26.246094 86.917969 L 44.066406 91.859375 L 44.105469 91.847656 L 44.105469 82.808594 L 44.066406 82.820312 L 34.378906 80.203125 Z M 33.757812 73.273438 " fill-opacity="1" fill-rule="nonzero"/><g clip-path="url(#55d2eeba15)"><path fill="#000000" d="M 15.824219 8.921875 L 20.246094 8.921875 L 20.246094 13.28125 L 24.289062 13.28125 L 24.289062 8.921875 L 28.710938 8.921875 L 28.710938 22.132812 L 24.289062 22.132812 L 24.289062 17.707031 L 20.246094 17.707031 L 20.246094 22.132812 L 15.824219 22.132812 Z M 15.824219 8.921875 " fill-opacity="1" fill-rule="nonzero"/></g><g clip-path="url(#c34bcd0f3e)"><path fill="#000000" d="M 34.527344 13.300781 L 30.632812 13.300781 L 30.632812 8.921875 L 42.84375 8.921875 L 42.84375 13.300781 L 38.945312 13.300781 L 38.945312 22.132812 L 34.527344 22.132812 Z M 34.527344 13.300781 " fill-opacity="1" fill-rule="nonzero"/></g><g clip-path="url(#16cafeb441)"><path fill="#000000" d="M 44.777344 8.921875 L 49.386719 8.921875 L 52.222656 13.5625 L 55.058594 8.921875 L 59.667969 8.921875 L 59.667969 22.132812 L 55.265625 22.132812 L 55.265625 15.582031 L 52.222656 20.28125 L 52.148438 20.28125 L 49.105469 15.582031 L 49.105469 22.132812 L 44.777344 22.132812 Z M 44.777344 8.921875 " fill-opacity="1" fill-rule="nonzero"/></g><g clip-path="url(#08c866f878)"><path fill="#000000" d="M 61.871094 8.921875 L 66.292969 8.921875 L 66.292969 17.765625 L 72.511719 17.765625 L 72.511719 22.132812 L 61.871094 22.132812 Z M 61.871094 8.921875 " fill-opacity="1" fill-rule="nonzero"/></g><path fill="#ffffff" d="M 44.078125 68.929688 L 54.789062 68.929688 L 53.78125 80.199219 L 44.078125 82.816406 L 44.078125 91.855469 L 61.910156 86.917969 L 62.042969 85.449219 L 64.085938 62.574219 L 64.300781 60.242188 L 44.078125 60.242188 Z M 44.078125 68.929688 " fill-opacity="1" fill-rule="nonzero"/><path fill="#ffffff" d="M 44.078125 51.320312 L 44.078125 51.34375 L 65.089844 51.34375 L 65.265625 49.390625 L 65.660156 44.984375 L 65.867188 42.652344 L 44.078125 42.652344 Z M 44.078125 51.320312 " fill-opacity="1" fill-rule="nonzero"/></svg>