<svg xmlns="http://www.w3.org/2000/svg" xmlns:xlink="http://www.w3.org/1999/xlink" width="117" zoomAndPan="magnify" viewBox="0 0 87.75 119.999999" height="160" preserveAspectRatio="xMidYMid meet" version="1.0"><defs><clipPath id="b1629ca4b7"><path d="M 18 13.308594 L 66 13.308594 L 66 104.550781 L 18 104.550781 Z M 18 13.308594 " clip-rule="nonzero"/></clipPath></defs><path fill="#4e7896" d="M 35.136719 61.695312 C 35.136719 61.695312 32.71875 63.160156 36.816406 63.578125 C 41.753906 64.203125 44.382812 64.101562 49.84375 63.054688 C 49.84375 63.054688 51.316406 63.996094 53.3125 64.726562 C 41.019531 69.953125 25.472656 64.414062 35.136719 61.695312 Z M 33.5625 54.902344 C 33.5625 54.902344 30.933594 56.890625 35.03125 57.308594 C 40.390625 57.828125 44.589844 57.933594 51.839844 56.472656 C 51.839844 56.472656 52.785156 57.515625 54.363281 58.039062 C 39.550781 62.429688 22.949219 58.457031 33.558594 54.902344 Z M 62.558594 66.816406 C 62.558594 66.816406 64.34375 68.277344 60.558594 69.429688 C 53.523438 71.519531 31.039062 72.144531 24.734375 69.429688 C 22.53125 68.488281 26.730469 67.128906 28.097656 66.921875 C 29.464844 66.605469 30.199219 66.605469 30.199219 66.605469 C 27.78125 64.933594 14.125 70.054688 23.265625 71.519531 C 48.375 75.59375 69.070312 69.742188 62.554688 66.816406 Z M 36.292969 47.796875 C 36.292969 47.796875 24.84375 50.511719 32.195312 51.453125 C 35.347656 51.871094 41.546875 51.765625 47.324219 51.347656 C 52.050781 50.929688 56.777344 50.09375 56.777344 50.09375 C 56.777344 50.09375 55.097656 50.824219 53.941406 51.558594 C 42.28125 54.589844 19.90625 53.230469 26.3125 50.09375 C 31.777344 47.480469 36.292969 47.796875 36.292969 47.796875 Z M 56.777344 59.1875 C 68.542969 53.125 63.082031 47.273438 59.300781 48.003906 C 58.355469 48.214844 57.933594 48.421875 57.933594 48.421875 C 57.933594 48.421875 58.25 47.796875 58.984375 47.585938 C 66.445312 44.972656 72.328125 55.425781 56.570312 59.5 C 56.570312 59.5 56.671875 59.394531 56.777344 59.1875 Z M 37.449219 75.699219 C 48.792969 76.429688 66.125 75.28125 66.550781 69.949219 C 66.550781 69.949219 65.710938 72.039062 57.199219 73.609375 C 47.535156 75.386719 35.558594 75.175781 28.519531 74.027344 C 28.519531 74.027344 29.992188 75.28125 37.449219 75.699219 Z M 37.449219 75.699219 " fill-opacity="1" fill-rule="nonzero"/><g clip-path="url(#b1629ca4b7)"><path fill="#f58219" d="M 49.632812 13.308594 C 49.632812 13.308594 56.148438 19.894531 43.4375 29.820312 C 33.246094 37.867188 41.125 42.464844 43.4375 47.691406 C 37.449219 42.363281 33.140625 37.660156 36.082031 33.269531 C 40.390625 26.789062 52.261719 23.65625 49.632812 13.308594 Z M 46.273438 43.304688 C 49.320312 46.75 45.433594 49.886719 45.433594 49.886719 C 45.433594 49.886719 53.207031 45.914062 49.636719 41.003906 C 46.378906 36.300781 43.859375 34.003906 57.515625 26.167969 C 57.515625 26.167969 35.980469 31.496094 46.273438 43.304688 Z M 38.5 99.421875 L 38.5 89.179688 C 38.5 86.566406 37.027344 84.789062 33.351562 84.789062 C 31.25 84.789062 29.464844 85.3125 27.886719 85.9375 L 28.414062 87.816406 C 29.566406 87.398438 31.039062 86.980469 32.617188 86.980469 C 34.613281 86.980469 35.558594 87.816406 35.558594 89.488281 L 35.558594 90.847656 L 34.507812 90.847656 C 29.464844 90.847656 27.152344 92.730469 27.152344 95.761719 C 27.152344 98.269531 28.730469 99.730469 31.566406 99.730469 C 33.351562 99.730469 34.71875 98.894531 35.976562 97.851562 L 36.1875 99.417969 L 38.5 99.417969 Z M 35.558594 96.074219 C 34.507812 97.015625 33.351562 97.539062 32.300781 97.539062 C 30.933594 97.539062 30.09375 96.703125 30.09375 95.238281 C 30.09375 93.777344 30.933594 92.730469 34.296875 92.730469 L 35.558594 92.730469 Z M 48.375 99.421875 L 44.695312 99.421875 L 40.285156 85.101562 L 43.4375 85.101562 L 46.167969 93.882812 L 46.796875 96.492188 C 48.164062 92.730469 49.214844 88.863281 49.636719 85.101562 L 52.785156 85.101562 C 51.945312 89.804688 50.476562 94.925781 48.375 99.421875 Z M 65.394531 99.421875 L 65.394531 89.179688 C 65.394531 86.566406 63.921875 84.789062 60.246094 84.789062 C 58.144531 84.789062 56.359375 85.3125 54.78125 85.9375 L 55.203125 87.816406 C 56.464844 87.398438 57.933594 86.980469 59.507812 86.980469 C 61.507812 86.980469 62.453125 87.816406 62.453125 89.488281 L 62.453125 90.847656 L 61.402344 90.847656 C 56.359375 90.847656 54.046875 92.730469 54.046875 95.761719 C 54.046875 98.269531 55.519531 99.730469 58.355469 99.730469 C 60.246094 99.730469 61.609375 98.894531 62.871094 97.851562 L 63.082031 99.417969 L 65.394531 99.417969 Z M 62.453125 96.074219 C 61.402344 97.015625 60.246094 97.539062 59.195312 97.539062 C 57.828125 97.539062 56.988281 96.703125 56.988281 95.238281 C 56.988281 93.777344 57.828125 92.730469 61.191406 92.730469 L 62.453125 92.730469 Z M 23.898438 101.824219 C 23.054688 103.078125 21.796875 104.019531 20.21875 104.539062 L 18.851562 102.871094 C 19.902344 102.242188 20.953125 101.300781 21.375 100.464844 C 21.792969 99.734375 21.898438 98.691406 21.898438 96.285156 L 21.898438 79.984375 L 25.050781 79.984375 L 25.050781 96.078125 C 25.050781 99.316406 24.738281 100.570312 23.898438 101.824219 Z M 23.898438 101.824219 " fill-opacity="1" fill-rule="nonzero"/></g></svg>