<svg xmlns="http://www.w3.org/2000/svg" xmlns:xlink="http://www.w3.org/1999/xlink" width="117" zoomAndPan="magnify" viewBox="0 0 87.75 119.999999" height="160" preserveAspectRatio="xMidYMid meet" version="1.0"><defs><clipPath id="a3f96a05a1"><path d="M 20 8.921875 L 43 8.921875 L 43 93 L 20 93 Z M 20 8.921875 " clip-rule="nonzero"/></clipPath><clipPath id="15eaeb385d"><path d="M 40 80 L 46 80 L 46 104.648438 L 40 104.648438 Z M 40 80 " clip-rule="nonzero"/></clipPath></defs><path fill="#599636" d="M 42.074219 9.179688 L 44.628906 13.980469 C 45.203125 14.863281 45.824219 15.648438 46.558594 16.378906 C 48.695312 18.515625 50.722656 20.757812 52.546875 23.15625 C 56.875 28.839844 59.792969 35.152344 61.875 41.980469 C 63.125 46.148438 63.804688 50.425781 63.855469 54.753906 C 64.0625 67.683594 59.632812 78.789062 50.699219 88.019531 C 49.242188 89.476562 47.679688 90.832031 46.007812 92.03125 C 45.121094 92.03125 44.703125 91.355469 44.339844 90.726562 C 43.660156 89.582031 43.246094 88.277344 43.035156 86.972656 C 42.722656 85.410156 42.515625 83.84375 42.617188 82.230469 L 42.617188 81.5 C 42.546875 81.34375 41.765625 9.546875 42.074219 9.179688 Z M 42.074219 9.179688 " fill-opacity="1" fill-rule="nonzero"/><g clip-path="url(#a3f96a05a1)"><path fill="#6cac48" d="M 42.074219 9.023438 C 41.972656 8.8125 41.867188 8.972656 41.761719 9.074219 C 41.8125 10.121094 41.449219 11.054688 40.878906 11.945312 C 40.25 12.832031 39.417969 13.507812 38.585938 14.238281 C 33.949219 18.253906 30.304688 23.101562 27.382812 28.527344 C 23.496094 35.824219 21.492188 43.648438 20.925781 51.882812 C 20.667969 54.855469 21.863281 65.335938 22.800781 68.359375 C 25.351562 76.390625 29.9375 83.117188 35.878906 88.957031 C 37.335938 90.363281 38.898438 91.667969 40.511719 92.921875 C 40.980469 92.921875 41.03125 92.503906 41.140625 92.191406 C 41.347656 91.523438 41.503906 90.847656 41.609375 90.15625 L 42.65625 82.335938 Z M 42.074219 9.023438 " fill-opacity="1" fill-rule="nonzero"/></g><g clip-path="url(#15eaeb385d)"><path fill="#c2bfbf" d="M 44.628906 95.210938 C 44.734375 94.011719 45.308594 93.019531 45.933594 92.03125 C 45.304688 91.769531 44.839844 91.253906 44.472656 90.675781 C 44.160156 90.152344 43.898438 89.527344 43.695312 88.953125 C 42.96875 86.765625 42.8125 84.46875 42.601562 82.230469 L 42.601562 80.875 C 42.34375 81.082031 42.289062 82.855469 42.289062 83.117188 C 42.136719 85.484375 41.824219 87.832031 41.351562 90.15625 C 41.195312 91.097656 41.089844 92.03125 40.511719 92.867188 C 40.511719 92.972656 40.511719 93.078125 40.5625 93.230469 C 41.503906 95.996094 41.757812 98.8125 41.917969 101.679688 L 41.917969 102.726562 C 41.917969 103.976562 41.867188 103.714844 42.902344 104.132812 C 43.324219 104.289062 43.789062 104.34375 44.207031 104.652344 C 44.519531 104.652344 44.570312 104.394531 44.570312 104.183594 L 44.417969 102.464844 L 44.417969 97.664062 C 44.367188 96.828125 44.519531 95.996094 44.625 95.210938 Z M 44.628906 95.210938 " fill-opacity="1" fill-rule="nonzero"/></g></svg>