<svg xmlns="http://www.w3.org/2000/svg" xmlns:xlink="http://www.w3.org/1999/xlink" width="117" zoomAndPan="magnify" viewBox="0 0 87.75 119.999999" height="160" preserveAspectRatio="xMidYMid meet" version="1.0"><defs><clipPath id="fb4878aeab"><path d="M 3.679688 15 L 82.957031 15 L 82.957031 104.585938 L 3.679688 104.585938 Z M 3.679688 15 " clip-rule="nonzero"/></clipPath></defs><g clip-path="url(#fb4878aeab)"><path fill="#539e43" d="M 43.316406 104.570312 C 42.089844 104.570312 40.945312 104.242188 39.882812 103.667969 L 29 97.175781 C 27.363281 96.273438 28.183594 95.945312 28.671875 95.78125 C 30.882812 95.039062 31.289062 94.875 33.582031 93.558594 C 33.828125 93.394531 34.15625 93.480469 34.398438 93.644531 L 42.742188 98.65625 C 43.070312 98.820312 43.480469 98.820312 43.730469 98.65625 L 76.371094 79.671875 C 76.699219 79.507812 76.863281 79.179688 76.863281 78.769531 L 76.863281 40.882812 C 76.863281 40.472656 76.699219 40.144531 76.371094 39.980469 L 43.730469 21.078125 C 43.402344 20.914062 42.992188 20.914062 42.742188 21.078125 L 10.101562 39.980469 C 9.773438 40.144531 9.609375 40.554688 9.609375 40.882812 L 9.609375 78.769531 C 9.609375 79.097656 9.773438 79.507812 10.101562 79.675781 L 19.019531 84.851562 C 23.847656 87.316406 26.871094 84.441406 26.871094 81.5625 L 26.871094 44.171875 C 26.871094 43.675781 27.28125 43.183594 27.855469 43.183594 L 32.027344 43.183594 C 32.519531 43.183594 33.007812 43.59375 33.007812 44.171875 L 33.007812 81.5625 C 33.007812 88.054688 29.492188 91.835938 23.355469 91.835938 C 21.472656 91.835938 20 91.835938 15.828125 89.78125 L 7.238281 84.851562 C 5.109375 83.617188 3.800781 81.316406 3.800781 78.851562 L 3.800781 40.96875 C 3.800781 38.5 5.109375 36.199219 7.238281 34.964844 L 39.882812 15.984375 C 41.925781 14.832031 44.710938 14.832031 46.753906 15.984375 L 79.398438 34.964844 C 81.527344 36.199219 82.835938 38.5 82.835938 40.964844 L 82.835938 78.851562 C 82.835938 81.316406 81.527344 83.617188 79.398438 84.847656 L 46.753906 103.832031 C 45.691406 104.328125 44.464844 104.570312 43.316406 104.570312 Z M 53.382812 78.523438 C 39.0625 78.523438 36.117188 71.945312 36.117188 66.359375 C 36.117188 65.863281 36.527344 65.371094 37.101562 65.371094 L 41.355469 65.371094 C 41.84375 65.371094 42.253906 65.699219 42.253906 66.195312 C 42.90625 70.550781 44.789062 72.6875 53.464844 72.6875 C 60.335938 72.6875 63.28125 71.125 63.28125 67.425781 C 63.28125 65.292969 62.464844 63.726562 51.746094 62.660156 C 42.828125 61.753906 37.265625 59.785156 37.265625 52.636719 C 37.265625 45.976562 42.828125 42.035156 52.152344 42.035156 C 62.625 42.035156 67.78125 45.648438 68.4375 53.539062 C 68.4375 53.785156 68.355469 54.03125 68.191406 54.277344 C 68.027344 54.445312 67.78125 54.609375 67.535156 54.609375 L 63.28125 54.609375 C 62.875 54.609375 62.464844 54.277344 62.382812 53.867188 C 61.402344 49.347656 58.863281 47.871094 52.152344 47.871094 C 44.628906 47.871094 43.730469 50.5 43.730469 52.472656 C 43.730469 54.851562 44.789062 55.59375 54.9375 56.910156 C 65 58.222656 69.746094 60.113281 69.746094 67.179688 C 69.664062 74.410156 63.773438 78.523438 53.382812 78.523438 Z M 53.382812 78.523438 " fill-opacity="1" fill-rule="nonzero"/></g></svg>