<svg xmlns="http://www.w3.org/2000/svg" xmlns:xlink="http://www.w3.org/1999/xlink" width="117" zoomAndPan="magnify" viewBox="0 0 87.75 119.999999" height="160" preserveAspectRatio="xMidYMid meet" version="1.0"><defs><clipPath id="dd2e174478"><path d="M 1.816406 22 L 85.578125 22 L 85.578125 98 L 1.816406 98 Z M 1.816406 22 " clip-rule="nonzero"/></clipPath></defs><g clip-path="url(#dd2e174478)"><path fill="#00d8ff" d="M 70.628906 46.953125 C 69.765625 46.652344 68.867188 46.367188 67.9375 46.101562 C 68.09375 45.476562 68.234375 44.863281 68.355469 44.257812 C 70.390625 34.339844 69.0625 26.347656 64.511719 23.714844 C 60.152344 21.191406 53.019531 23.820312 45.816406 30.113281 C 45.125 30.714844 44.429688 31.355469 43.738281 32.027344 C 43.273438 31.582031 42.8125 31.15625 42.351562 30.746094 C 34.804688 24.019531 27.234375 21.183594 22.691406 23.824219 C 18.335938 26.355469 17.046875 33.867188 18.878906 43.269531 C 19.058594 44.179688 19.265625 45.105469 19.496094 46.050781 C 18.425781 46.355469 17.394531 46.679688 16.402344 47.023438 C 7.554688 50.121094 1.902344 54.972656 1.902344 60.007812 C 1.902344 65.203125 7.96875 70.417969 17.1875 73.578125 C 17.914062 73.828125 18.667969 74.066406 19.445312 74.289062 C 19.195312 75.304688 18.976562 76.304688 18.789062 77.28125 C 17.042969 86.519531 18.40625 93.855469 22.753906 96.371094 C 27.242188 98.96875 34.773438 96.296875 42.105469 89.867188 C 42.6875 89.359375 43.269531 88.816406 43.851562 88.253906 C 44.609375 88.980469 45.363281 89.671875 46.109375 90.320312 C 53.214844 96.453125 60.234375 98.929688 64.574219 96.410156 C 69.054688 93.808594 70.515625 85.925781 68.621094 76.339844 C 68.476562 75.605469 68.308594 74.859375 68.121094 74.097656 C 68.652344 73.941406 69.167969 73.777344 69.675781 73.609375 C 79.257812 70.421875 85.492188 65.273438 85.492188 60.007812 C 85.492188 54.953125 79.65625 50.070312 70.628906 46.953125 Z M 68.550781 70.207031 C 68.09375 70.359375 67.625 70.507812 67.148438 70.648438 C 66.089844 67.289062 64.664062 63.714844 62.914062 60.023438 C 64.582031 56.417969 65.953125 52.890625 66.980469 49.554688 C 67.835938 49.800781 68.667969 50.0625 69.46875 50.339844 C 77.203125 53.011719 81.921875 56.960938 81.921875 60.007812 C 81.921875 63.246094 76.828125 67.457031 68.550781 70.207031 Z M 65.117188 77.03125 C 65.957031 81.273438 66.074219 85.105469 65.519531 88.101562 C 65.023438 90.796875 64.019531 92.59375 62.78125 93.308594 C 60.148438 94.839844 54.515625 92.851562 48.441406 87.605469 C 47.742188 87.003906 47.042969 86.359375 46.339844 85.683594 C 48.691406 83.097656 51.046875 80.09375 53.347656 76.753906 C 57.386719 76.398438 61.203125 75.808594 64.667969 75.003906 C 64.835938 75.695312 64.988281 76.371094 65.117188 77.03125 Z M 30.402344 93.042969 C 27.828125 93.957031 25.777344 93.984375 24.539062 93.265625 C 21.902344 91.738281 20.804688 85.847656 22.300781 77.949219 C 22.472656 77.046875 22.675781 76.117188 22.910156 75.164062 C 26.335938 75.925781 30.125 76.472656 34.175781 76.800781 C 36.488281 80.066406 38.910156 83.066406 41.351562 85.695312 C 40.820312 86.214844 40.285156 86.703125 39.757812 87.167969 C 36.515625 90.011719 33.265625 92.03125 30.402344 93.042969 Z M 18.34375 70.1875 C 14.265625 68.789062 10.902344 66.976562 8.59375 64.988281 C 6.519531 63.210938 5.472656 61.441406 5.472656 60.007812 C 5.472656 56.953125 10.011719 53.054688 17.582031 50.410156 C 18.5 50.085938 19.460938 49.785156 20.457031 49.5 C 21.503906 52.914062 22.875 56.484375 24.53125 60.089844 C 22.855469 63.753906 21.464844 67.382812 20.40625 70.835938 C 19.695312 70.632812 19.007812 70.414062 18.34375 70.1875 Z M 22.386719 42.582031 C 20.8125 34.527344 21.859375 28.449219 24.484375 26.925781 C 27.28125 25.300781 33.464844 27.617188 39.980469 33.421875 C 40.398438 33.792969 40.816406 34.183594 41.238281 34.585938 C 38.808594 37.203125 36.40625 40.179688 34.113281 43.425781 C 30.183594 43.792969 26.417969 44.378906 22.960938 45.167969 C 22.742188 44.289062 22.550781 43.425781 22.386719 42.582031 Z M 58.441406 51.515625 C 57.613281 50.082031 56.765625 48.683594 55.898438 47.320312 C 58.566406 47.660156 61.121094 48.109375 63.519531 48.660156 C 62.804688 50.976562 61.90625 53.398438 60.847656 55.882812 C 60.089844 54.4375 59.285156 52.980469 58.441406 51.515625 Z M 43.738281 37.144531 C 45.386719 38.9375 47.035156 40.933594 48.65625 43.105469 C 47.023438 43.027344 45.367188 42.988281 43.699219 42.988281 C 42.046875 42.988281 40.402344 43.027344 38.777344 43.101562 C 40.398438 40.953125 42.066406 38.957031 43.738281 37.144531 Z M 28.9375 51.539062 C 28.113281 52.976562 27.324219 54.425781 26.578125 55.878906 C 25.539062 53.402344 24.648438 50.96875 23.921875 48.621094 C 26.308594 48.085938 28.851562 47.648438 31.503906 47.316406 C 30.625 48.6875 29.769531 50.097656 28.9375 51.539062 Z M 31.578125 72.949219 C 28.839844 72.644531 26.257812 72.230469 23.875 71.710938 C 24.613281 69.316406 25.523438 66.832031 26.582031 64.304688 C 27.332031 65.757812 28.121094 67.203125 28.953125 68.644531 C 29.800781 70.113281 30.679688 71.546875 31.578125 72.949219 Z M 43.835938 83.117188 C 42.144531 81.285156 40.457031 79.257812 38.804688 77.078125 C 40.40625 77.140625 42.039062 77.171875 43.699219 77.171875 C 45.402344 77.171875 47.085938 77.132812 48.742188 77.0625 C 47.117188 79.28125 45.472656 81.3125 43.835938 83.117188 Z M 60.878906 64.175781 C 61.996094 66.730469 62.941406 69.203125 63.6875 71.554688 C 61.265625 72.109375 58.644531 72.554688 55.890625 72.886719 C 56.757812 71.507812 57.613281 70.085938 58.457031 68.621094 C 59.308594 67.136719 60.117188 65.65625 60.878906 64.175781 Z M 55.359375 66.832031 C 54.054688 69.105469 52.714844 71.273438 51.351562 73.320312 C 48.875 73.496094 46.308594 73.589844 43.699219 73.589844 C 41.09375 73.589844 38.566406 73.511719 36.128906 73.351562 C 34.710938 71.277344 33.34375 69.101562 32.042969 66.851562 C 30.75 64.605469 29.558594 62.34375 28.476562 60.089844 C 29.558594 57.835938 30.746094 55.570312 32.035156 53.332031 L 32.03125 53.332031 C 33.324219 51.085938 34.683594 48.917969 36.085938 46.855469 C 38.570312 46.667969 41.121094 46.570312 43.699219 46.570312 C 46.289062 46.570312 48.835938 46.667969 51.320312 46.859375 C 52.707031 48.90625 54.054688 51.066406 55.351562 53.3125 C 56.660156 55.582031 57.867188 57.835938 58.953125 60.042969 C 57.867188 62.285156 56.667969 64.558594 55.359375 66.832031 Z M 62.726562 26.816406 C 65.53125 28.4375 66.617188 34.96875 64.855469 43.535156 C 64.746094 44.082031 64.617188 44.636719 64.480469 45.203125 C 61.011719 44.398438 57.25 43.800781 53.308594 43.429688 C 51.007812 40.148438 48.628906 37.164062 46.238281 34.582031 C 46.882812 33.960938 47.523438 33.371094 48.160156 32.8125 C 54.332031 27.425781 60.101562 25.296875 62.726562 26.816406 Z M 43.699219 52.515625 C 47.820312 52.515625 51.164062 55.867188 51.164062 60.003906 C 51.164062 64.140625 47.820312 67.496094 43.699219 67.496094 C 39.578125 67.496094 36.234375 64.140625 36.234375 60.003906 C 36.234375 55.867188 39.578125 52.515625 43.699219 52.515625 Z M 43.699219 52.515625 " fill-opacity="1" fill-rule="nonzero"/></g></svg>