<svg xmlns="http://www.w3.org/2000/svg" xmlns:xlink="http://www.w3.org/1999/xlink" width="117" zoomAndPan="magnify" viewBox="0 0 87.75 119.999999" height="160" preserveAspectRatio="xMidYMid meet" version="1.0"><defs><clipPath id="46f2345410"><path d="M 3.902344 26.625 L 83.921875 26.625 L 83.921875 93.933594 L 3.902344 93.933594 Z M 3.902344 26.625 " clip-rule="nonzero"/></clipPath></defs><path fill="#98ccfd" d="M 64.640625 67.144531 L 5.621094 67.144531 C 5.621094 67.144531 5.621094 81.398438 5.621094 81.402344 C 5.621094 87.378906 18.832031 92.222656 35.132812 92.222656 C 51.429688 92.222656 64.640625 87.378906 64.640625 81.402344 C 64.640625 81.398438 64.640625 67.144531 64.640625 67.144531 Z M 64.640625 67.144531 " fill-opacity="1" fill-rule="nonzero"/><path fill="#dff0fe" d="M 64.640625 53.144531 L 5.621094 53.144531 C 5.621094 53.144531 5.621094 67.398438 5.621094 67.402344 C 5.621094 73.378906 18.832031 78.222656 35.132812 78.222656 C 51.429688 78.222656 64.640625 73.378906 64.640625 67.402344 C 64.640625 67.398438 64.640625 53.144531 64.640625 53.144531 Z M 64.640625 53.144531 " fill-opacity="1" fill-rule="nonzero"/><path fill="#ffffff" d="M 64.640625 39.164062 L 5.621094 39.164062 C 5.621094 39.164062 5.621094 53.417969 5.621094 53.417969 C 5.621094 59.394531 18.832031 64.242188 35.132812 64.242188 C 51.429688 64.242188 64.640625 59.394531 64.640625 53.417969 C 64.640625 53.417969 64.640625 39.164062 64.640625 39.164062 Z M 64.640625 39.164062 " fill-opacity="1" fill-rule="nonzero"/><path fill="#ffffff" d="M 35.132812 49.980469 C 51.429688 49.980469 64.640625 45.132812 64.640625 39.15625 C 64.640625 33.179688 51.429688 28.335938 35.132812 28.335938 C 18.832031 28.335938 5.621094 33.179688 5.621094 39.15625 C 5.621094 45.132812 18.832031 49.980469 35.132812 49.980469 Z M 35.132812 49.980469 " fill-opacity="1" fill-rule="nonzero"/><path fill="#ffffff" d="M 76.71875 56.804688 L 40.617188 56.804688 C 37.585938 56.804688 35.132812 59.273438 35.132812 62.316406 L 35.132812 79.671875 C 35.132812 82.714844 37.585938 85.179688 40.617188 85.179688 L 76.71875 85.179688 C 79.746094 85.179688 82.203125 82.714844 82.203125 79.671875 L 82.203125 62.316406 C 82.203125 59.273438 79.746094 56.804688 76.71875 56.804688 Z M 76.71875 56.804688 " fill-opacity="1" fill-rule="nonzero"/><path fill="#dff0fe" d="M 59.960938 64.371094 L 57.261719 64.371094 C 56.128906 64.371094 55.207031 65.292969 55.207031 66.433594 L 55.207031 73.6875 C 55.207031 74.828125 56.128906 75.75 57.261719 75.75 L 59.960938 75.75 C 61.09375 75.75 62.015625 74.828125 62.015625 73.6875 L 62.015625 66.433594 C 62.015625 65.292969 61.09375 64.371094 59.960938 64.371094 Z M 59.960938 64.371094 " fill-opacity="1" fill-rule="nonzero"/><g clip-path="url(#46f2345410)"><path fill="#2a5075" d="M 76.71875 55.097656 L 66.34375 55.097656 L 66.34375 39.164062 C 66.34375 39.164062 66.34375 39.160156 66.34375 39.160156 C 66.34375 39.160156 66.34375 39.15625 66.34375 39.15625 C 66.34375 31.015625 50.261719 26.625 35.128906 26.625 C 20 26.625 3.917969 31.015625 3.917969 39.15625 C 3.917969 39.160156 3.917969 39.160156 3.917969 39.164062 L 3.917969 81.402344 C 3.917969 89.539062 20 93.933594 35.128906 93.933594 C 47.484375 93.933594 58.503906 91.175781 63.4375 86.890625 L 76.71875 86.890625 C 80.679688 86.890625 83.90625 83.652344 83.90625 79.671875 L 83.90625 62.316406 C 83.90625 58.335938 80.679688 55.097656 76.71875 55.097656 Z M 40.617188 55.097656 C 36.652344 55.097656 33.429688 58.335938 33.429688 62.316406 L 33.429688 62.5 C 17.984375 62.175781 7.332031 57.5625 7.324219 53.425781 L 7.324219 45.058594 C 12.832031 49.390625 24.210938 51.691406 35.128906 51.691406 C 46.050781 51.691406 57.429688 49.390625 62.941406 45.058594 L 62.941406 53.417969 C 62.941406 53.964844 62.734375 54.523438 62.34375 55.097656 Z M 7.324219 67.40625 L 7.324219 59.308594 C 12.550781 63.417969 23.066406 65.695312 33.429688 65.917969 L 33.429688 76.484375 C 17.996094 76.15625 7.332031 71.527344 7.324219 67.40625 Z M 35.128906 30.042969 C 51.046875 30.042969 62.941406 34.855469 62.941406 39.15625 C 62.941406 43.460938 51.046875 48.273438 35.128906 48.273438 C 19.214844 48.273438 7.320312 43.460938 7.320312 39.15625 C 7.320312 34.855469 19.214844 30.042969 35.128906 30.042969 Z M 35.128906 90.515625 C 19.214844 90.515625 7.320312 85.703125 7.320312 81.402344 L 7.324219 73.277344 C 12.566406 77.394531 23.113281 79.683594 33.453125 79.902344 C 33.578125 83.773438 36.734375 86.890625 40.617188 86.890625 L 56.839844 86.890625 C 51.578125 89.128906 43.640625 90.515625 35.128906 90.515625 Z M 80.5 79.671875 C 80.5 81.765625 78.804688 83.46875 76.71875 83.46875 L 40.617188 83.46875 C 38.53125 83.46875 36.832031 81.765625 36.832031 79.671875 L 36.832031 62.316406 C 36.832031 60.21875 38.53125 58.515625 40.617188 58.515625 L 76.71875 58.515625 C 78.804688 58.515625 80.5 60.21875 80.5 62.316406 Z M 43.660156 66.378906 L 43.660156 68.050781 C 43.660156 68.214844 43.792969 68.351562 43.957031 68.351562 L 46.765625 68.351562 C 48.804688 68.351562 50.46875 70.019531 50.46875 72.070312 L 50.46875 73.742188 C 50.46875 75.792969 48.804688 77.460938 46.765625 77.460938 L 43.957031 77.460938 C 41.917969 77.460938 40.257812 75.792969 40.257812 73.742188 L 40.257812 73.296875 C 40.257812 72.351562 41.019531 71.585938 41.957031 71.585938 C 42.898438 71.585938 43.660156 72.351562 43.660156 73.296875 L 43.660156 73.742188 C 43.660156 73.90625 43.792969 74.042969 43.957031 74.042969 L 46.765625 74.042969 C 46.929688 74.042969 47.0625 73.90625 47.0625 73.742188 L 47.0625 72.070312 C 47.0625 71.902344 46.929688 71.769531 46.765625 71.769531 L 43.957031 71.769531 C 41.917969 71.769531 40.257812 70.101562 40.257812 68.050781 L 40.257812 66.378906 C 40.257812 64.328125 41.917969 62.660156 43.957031 62.660156 L 46.765625 62.660156 C 48.804688 62.660156 50.46875 64.328125 50.46875 66.378906 C 50.46875 67.324219 49.707031 68.085938 48.765625 68.085938 C 47.824219 68.085938 47.0625 67.324219 47.0625 66.378906 C 47.0625 66.210938 46.929688 66.078125 46.765625 66.078125 L 43.957031 66.078125 C 43.792969 66.078125 43.660156 66.210938 43.660156 66.378906 Z M 63.714844 73.6875 L 63.714844 66.433594 C 63.714844 64.351562 62.03125 62.660156 59.960938 62.660156 L 57.261719 62.660156 C 55.191406 62.660156 53.503906 64.351562 53.503906 66.433594 L 53.503906 73.6875 C 53.503906 75.769531 55.191406 77.460938 57.261719 77.460938 L 59.960938 77.460938 C 60.042969 77.460938 60.117188 77.441406 60.199219 77.4375 C 61.25 78.492188 62.84375 78.917969 64.292969 78.484375 C 65.730469 77.867188 63.472656 76.394531 63.175781 75.605469 C 63.511719 75.042969 63.714844 74.390625 63.714844 73.6875 Z M 56.910156 73.6875 L 56.910156 66.433594 C 56.910156 66.238281 57.066406 66.078125 57.261719 66.078125 L 59.960938 66.078125 C 60.15625 66.078125 60.3125 66.238281 60.3125 66.433594 L 60.3125 73.6875 C 60.3125 73.882812 60.15625 74.042969 59.960938 74.042969 L 57.261719 74.042969 C 57.066406 74.042969 56.910156 73.882812 56.910156 73.6875 Z M 77.332031 73.6875 C 77.332031 75.769531 75.644531 77.460938 73.574219 77.460938 L 70.878906 77.460938 C 68.804688 77.460938 67.121094 75.769531 67.121094 73.6875 L 67.121094 64.371094 C 67.121094 63.425781 67.882812 62.660156 68.824219 62.660156 C 69.761719 62.660156 70.523438 63.425781 70.523438 64.371094 L 70.523438 73.6875 C 70.523438 73.882812 70.683594 74.042969 70.878906 74.042969 L 73.574219 74.042969 C 73.769531 74.042969 73.929688 73.882812 73.929688 73.6875 C 73.929688 72.742188 74.691406 71.980469 75.628906 71.980469 C 76.570312 71.980469 77.332031 72.742188 77.332031 73.6875 Z M 23.824219 39.15625 C 23.824219 38.992188 23.960938 38.859375 24.125 38.859375 L 27.527344 38.859375 C 27.691406 38.859375 27.824219 38.992188 27.824219 39.15625 C 27.824219 39.320312 27.691406 39.457031 27.527344 39.457031 L 24.125 39.457031 C 23.960938 39.457031 23.824219 39.320312 23.824219 39.15625 Z M 32.335938 39.15625 C 32.335938 38.992188 32.46875 38.859375 32.632812 38.859375 L 36.035156 38.859375 C 36.199219 38.859375 36.335938 38.992188 36.335938 39.15625 C 36.335938 39.320312 36.199219 39.457031 36.035156 39.457031 L 32.632812 39.457031 C 32.46875 39.457031 32.335938 39.320312 32.335938 39.15625 Z M 40.84375 39.15625 C 40.84375 38.992188 40.976562 38.859375 41.140625 38.859375 L 44.546875 38.859375 C 44.710938 38.859375 44.84375 38.992188 44.84375 39.15625 C 44.84375 39.320312 44.710938 39.457031 44.546875 39.457031 L 41.140625 39.457031 C 40.976562 39.457031 40.84375 39.320312 40.84375 39.15625 Z M 40.84375 39.15625 " fill-opacity="1" fill-rule="nonzero"/></g></svg>